<svg width="2760" height="1268" viewBox="0 0 2760 1268" fill="none" xmlns="http://www.w3.org/2000/svg">
<path d="M1725.93 556.166C1785.68 590.855 1785.68 677.145 1725.93 711.834L1049.44 1104.58C989.437 1139.41 914.25 1096.12 914.25 1026.74V241.257C914.25 171.879 989.437 128.59 1049.44 163.423L1725.93 556.166Z" fill="url(#paint0_linear_27_45)"/>
<mask id="mask0_27_45" style="mask-type:alpha" maskUnits="userSpaceOnUse" x="914" y="151" width="857" height="966">
<path d="M1725.93 556.166C1785.68 590.855 1785.68 677.145 1725.93 711.834L1049.44 1104.58C989.437 1139.41 914.25 1096.12 914.25 1026.74V241.257C914.25 171.879 989.437 128.59 1049.44 163.423L1725.93 556.166Z" fill="url(#paint1_linear_27_45)"/>
</mask>
<g mask="url(#mask0_27_45)">
<path d="M1232.99 703.089L1349 337L1447 394L1288.31 865.935C1281.64 885.752 1278.31 895.661 1270.42 901.304C1262.54 906.948 1252.08 906.903 1231.18 906.812L1202.76 906.688H1202.76C1181.88 906.597 1171.44 906.552 1163.61 900.852C1155.78 895.151 1152.52 885.232 1146.01 865.393L1014.56 464.706C1006.88 441.319 1003.05 429.626 1005.91 420.46C1007.89 414.118 1011.92 408.613 1017.36 404.807C1025.23 399.307 1037.54 399.424 1062.15 399.659C1075.74 399.788 1082.53 399.853 1088.21 402.379C1092.2 404.15 1095.75 406.769 1098.62 410.054C1102.71 414.737 1104.78 421.208 1108.91 434.152L1194.87 703.135C1202.73 727.733 1206.66 740.032 1213.97 740.023C1221.28 740.015 1225.18 727.706 1232.99 703.089Z" fill="white"/>
</g>
<path d="M44.1006 310.34L24.3726 313.812L25.5381 333.809L63.5381 985.809L64.6414 1004.74L83.4855 1006.86L247.985 1025.36L280.112 1028.97L272.34 997.591L199.752 704.5H258.016L442.519 1023.76L449.302 1035.49L462.848 1034.98L714.848 1025.48L730.647 1024.89L735.441 1009.82L738.941 998.822L743.244 985.298L732.893 975.589L431.821 693.195L688.142 674.44L697.025 673.79L703.056 667.236L766.556 598.236L774.694 589.394L771.87 577.713C739.47 443.702 716.119 370.033 659.447 246.611L652.895 232.341L637.241 233.569C405.52 251.743 275.4 269.639 44.1006 310.34ZM399.5 525.238L194.252 541.757L183.806 401.847L399.5 409.242V525.238Z" fill="white" stroke="#E3322C" stroke-width="45"/>
<path d="M2746.77 422.861C2747.12 406.99 2743.3 391.305 2735.68 377.375C2727.79 363.911 2716.42 352.823 2702.75 345.281C2581.63 275.345 2460.46 205.506 2339.25 135.765C2306.61 116.893 2274.98 117.563 2242.55 136.728C2194.34 165.056 1952.94 303.52 1881.01 345.239C1851.38 362.395 1836.99 388.674 1836.99 422.819V844.612C1836.68 860.147 1840.36 875.502 1847.66 889.218C1855.55 903.093 1867.14 914.507 1881.14 922.191C1953.07 964.036 2194.51 1102.33 2242.71 1130.79C2275.14 1149.95 2306.78 1150.62 2339.46 1131.75C2460.56 1061.78 2581.72 991.918 2702.96 922.149C2716.95 914.465 2728.54 903.051 2736.44 889.176C2743.74 875.461 2747.41 860.105 2747.11 844.57V422.861H2746.77Z" fill="#004482"/>
<path d="M2746.86 844.612C2747.17 860.148 2743.5 875.506 2736.19 889.218C2734.39 892.484 2732.36 895.616 2730.12 898.591L2291.88 633.715L2702.75 345.281C2716.4 352.826 2727.77 363.914 2735.64 377.375C2743.29 391.294 2747.13 406.984 2746.77 422.861C2746.86 563.458 2746.86 844.612 2746.86 844.612Z" fill="#00599C"/>
<path d="M2735.64 377.375L1847.53 889.218C1840.26 875.508 1836.62 860.168 1836.95 844.653V422.819C1836.95 388.673 1851.38 362.395 1880.97 345.239C1952.94 303.52 2194.34 165.056 2242.59 136.644C2274.93 117.479 2306.61 116.81 2339.25 135.681C2460.35 205.645 2581.51 275.512 2702.75 345.281C2716.4 352.826 2727.77 363.914 2735.64 377.375Z" fill="#659AD2"/>
<path d="M2309.46 804.106C2279.55 804.148 2250.18 796.159 2224.42 780.974C2198.66 765.789 2177.45 743.964 2163 717.781C2161.52 715.158 2160.13 712.48 2158.82 709.747C2140.99 672.934 2137.28 630.863 2148.4 591.5C2159.51 552.138 2184.67 518.218 2219.12 496.164C2253.57 474.109 2294.9 465.452 2335.3 471.831C2375.7 478.21 2412.36 499.183 2438.34 530.777C2440.55 533.456 2442.52 536.259 2444.74 539.146C2445.74 540.527 2446.75 541.908 2447.67 543.331L2594.42 458.805C2590.85 453.058 2587.11 447.479 2583.2 442.067C2581.15 439.18 2579.02 436.418 2577.01 433.698C2526 367.436 2452.02 322.693 2369.65 308.293C2287.28 293.893 2202.5 310.883 2132.04 355.91C2061.58 400.937 2010.55 470.733 1989.01 551.532C1967.48 632.331 1977 718.267 2015.71 792.389C2017.13 795.068 2018.59 797.704 2019.89 800.34C2048.32 850.493 2089.23 892.445 2138.65 922.124C2188.07 951.803 2244.33 968.2 2301.95 969.724C2359.58 971.249 2416.63 957.848 2467.55 930.823C2518.47 903.799 2561.54 864.068 2592.58 815.488L2449.09 728.744C2433.9 751.908 2413.18 770.926 2388.8 784.083C2364.43 797.24 2337.16 804.121 2309.46 804.106Z" fill="white"/>
<defs>
<linearGradient id="paint0_linear_27_45" x1="959" y1="158.5" x2="1399.5" y2="902" gradientUnits="userSpaceOnUse">
<stop stop-color="#FF6562"/>
<stop offset="1" stop-color="#C40300"/>
</linearGradient>
<linearGradient id="paint1_linear_27_45" x1="959" y1="158.5" x2="1399.5" y2="902" gradientUnits="userSpaceOnUse">
<stop stop-color="#FF6562"/>
<stop offset="1" stop-color="#C40300"/>
</linearGradient>
</defs>
</svg>
